<svg xmlns="http://www.w3.org/2000/svg" width="349.511" height="185.039" viewBox="0 0 349.511 185.039"><defs><style>.a{fill:#0c1c33;}.b{fill:#d4af37;}.c{fill:#fff;fill-rule:evenodd;}</style></defs><g transform="translate(0 -0.294)"><path class="a" d="M595.845,450.077a31.23,31.23,0,0,0-7.906,1.045,55.813,55.813,0,0,0-95.273-29.239,38.762,38.762,0,0,0-48.86-7.1c-11.276-16.95-30.016-28.051-51.241-28.051-29.7,0-54.534,21.723-60.846,50.813a44.563,44.563,0,1,0,6.216,85.242c.068,22.919,20.709,41.48,46.163,41.48,16.954,0,31.762-8.236,39.79-20.5a53.012,53.012,0,0,0,36.988,15.159c18.138,0,34.2-9.282,44.107-23.545a41.168,41.168,0,0,0,31.27,14.578c22.783,0,41.322-18.953,42.048-42.619a31.315,31.315,0,1,0,17.544-57.255Z" transform="translate(-277.649 -378.929)"/><circle class="b" cx="23.5" cy="23.5" r="23.5" transform="translate(55 0.294)"/><g transform="translate(67.008 14.62)"><path class="c" d="M28.067,11.293A2.056,2.056,0,1,1,31,14.172L20.06,27.851a2.057,2.057,0,0,1-2.961.055L9.848,20.652a2.057,2.057,0,1,1,2.906-2.906l5.741,5.737,9.52-12.13a.647.647,0,0,1,.055-.06Z" transform="translate(-9.182 -10.676)"/></g></g></svg>