<svg xmlns="http://www.w3.org/2000/svg" xmlns:xlink="http://www.w3.org/1999/xlink" width="891.956" height="928.981" viewBox="0 0 891.956 928.981"><defs><style>.a{fill:#fff;}.b{fill:#bbddde;}.c{opacity:0.05;mix-blend-mode:multiply;isolation:isolate;}.d{fill:#fefefe;}.e{fill:#fdfdfd;}.f{fill:#fcfcfc;}.g{fill:#fbfbfb;}.h{fill:#fafafa;}.i{fill:#f9f9f9;}.j{fill:#f8f8f8;}.k{fill:#f7f7f7;}.l{fill:#f6f6f6;}.m{fill:#f5f5f5;}.n{fill:#f4f4f4;}.o{fill:#f3f3f3;}.p{fill:#f2f2f2;}.q{fill:#f1f1f1;}.r{fill:#f0f0f0;}.s{fill:#efefef;}.t{fill:#eee;}.u{fill:#ededed;}.v{fill:#ececec;}.w{fill:#ebebeb;}.x{fill:#eaeaea;}.y{fill:#e9e9e9;}.z{fill:#e8e8e8;}.aa{fill:#e7e7e7;}.ab{fill:#e6e6e7;}.ac{fill:#e5e5e6;}.ad{fill:#e4e4e5;}.ae{fill:#e3e3e4;}.af{fill:#e2e2e3;}.ag{fill:#e1e1e2;}.ah{fill:#e0e0e1;}.ai{fill:#dfdfe0;}.aj{fill:#dededf;}.ak{fill:#ddddde;}.al{fill:#dcdcdd;}.am{fill:#dbdbdc;}.an{fill:#dadadb;}.ao{fill:#d9d9da;}.ap{fill:#d8d8d9;}.aq{fill:#d7d7d8;}.ar{fill:#d6d6d7;}.as{fill:#d5d5d6;}.at{fill:#d4d4d5;}.au{fill:#d3d3d4;}.av{fill:#d2d2d3;}.aw{fill:#d1d1d2;}.ax{fill:#d0d0d1;}.ay{fill:#cfcfd0;}.az{fill:#cececf;}.ba{fill:#cdcdce;}.bb{fill:#cccccd;}.bc{fill:#cbcbcc;}.bd{fill:#cacacb;}.be{fill:#c9c9ca;}.bf{fill:#c8c8c9;}.bg{fill:#c7c7c8;}.bh{fill:#c6c6c7;}.bi{fill:#c5c5c6;}.bj{fill:#c4c4c5;}.bk{fill:#c3c3c4;}.bl{fill:#c2c2c3;}.bm{fill:#c1c1c2;}.bn{fill:#c0c0c1;}.bo{fill:#bfbfc0;}.bp{fill:#bebebf;}.bq{fill:#bdbdbe;}.br{fill:#bcbcbd;}.bs{fill:#bbbbbc;}.bt{fill:#bababb;}.bu{fill:#b9b9ba;}.bv{fill:#b8b8b9;}.bw{fill:#b7b7b8;}.bx{fill:#b6b7b8;}.by{fill:#b5b6b7;}.bz{fill:#b4b5b6;}.ca{fill:#b3b4b5;}.cb{fill:#b2b3b4;}.cc{fill:#b1b2b3;}.cd{fill:#b0b1b2;}.ce{fill:#afb0b1;}.cf{fill:#aeafb0;}.cg{fill:#adaeaf;}.ch{fill:#acadae;}.ci{fill:#abacad;}.cj{fill:#aaabac;}.ck{fill:#a9aaab;}.cl{fill:#a8a9aa;}.cm{fill:#a7a8a9;}.cn{fill:#a6a7a8;}.co{fill:#a5a6a7;}.cp{fill:#a4a5a6;}.cq{fill:#a3a4a5;}.cr{fill:#a2a3a4;}.cs{fill:#a1a2a3;}.ct{fill:#a0a1a2;}.cu{fill:#9fa0a1;}.cv{fill:#9e9fa0;}.cw{fill:#9d9e9f;}.cx{fill:#9c9d9e;}.cy{fill:#9b9c9d;}.cz{fill:#9a9b9c;}.da{fill:#999a9b;}.db{fill:#98999a;}.dc{fill:#979899;}.dd{fill:#969798;}.de{fill:#959697;}.df{fill:#949596;}.dg{fill:#939495;}.dh{fill:#929394;}.di{fill:#919293;}.dj{fill:#909192;}.dk{fill:#8f9091;}.dl{fill:#8e8f90;}.dm{fill:#8d8e8f;}.dn{fill:#8c8d8e;}.do{fill:#8b8c8d;}.dp{fill:#8a8b8c;}.dq{fill:#898a8b;}.dr{fill:#88898a;}.ds{fill:#878889;}.dt{fill:#868788;}.du{fill:#858688;}.dv{fill:#848587;}.dw{fill:#838486;}.dx{fill:#828385;}.dy{fill:#818284;}.dz{fill:#808183;}.ea{fill:#7f8082;}.eb{fill:#7e7f81;}.ec{fill:#7d7e80;}.ed{fill:#7c7d7f;}.ee{fill:#7b7c7e;}.ef{fill:#7a7b7d;}.eg{fill:#797a7c;}.eh{fill:#78797b;}.ei{fill:#77787a;}.ej{fill:#767779;}.ek{fill:#757678;}.el{fill:#747577;}.em{fill:#737476;}.en{fill:#727375;}.eo{fill:#717274;}.ep{fill:#707173;}.eq{fill:#6f7072;}.er{fill:#6e6f71;}.es{fill:#6d6e70;}.et{fill:#c3e7e8;}.eu{filter:url(#a);}</style><filter id="a" x="6.456" y="0" width="879" height="787.657" filterUnits="userSpaceOnUse"><feOffset dy="-2" input="SourceAlpha"/><feGaussianBlur stdDeviation="10.5" result="b"/><feFlood flood-opacity="0.071"/><feComposite operator="in" in2="b"/><feComposite in="SourceGraphic"/></filter></defs><g transform="translate(-228 -1166.598)"><path class="a" d="M1045.978,528.708V512.214a42.99,42.99,0,0,0-23.327-38.229L635.519,214.066a63.816,63.816,0,0,0-71.071-.049L176.425,473.763a42.985,42.985,0,0,0-22.4,37.738v17.207Z" transform="translate(73.978 1120.892)"/><rect class="a" width="445.978" height="891.956" transform="translate(1119.956 1649.601) rotate(90)"/><g class="eu" transform="matrix(1, 0, 0, 1, 228, 1166.6)"><rect class="a" width="724.657" height="816" transform="translate(853.96 33.5) rotate(90)"/></g><path class="b" d="M989.236,528.708v46.177L600,751.7,210.764,574.885V528.708H154.022V974.686h891.956V528.708Z" transform="translate(73.978 1120.892)"/><g class="c" transform="translate(73.978 1120.892)"><path class="a" d="M1045.978,962.749V946.254a42.988,42.988,0,0,0-23.327-38.228L600,683.917,176.425,907.8a42.989,42.989,0,0,0-22.4,37.739v17.207Z"/><path class="d" d="M1045.978,962.831V946.336a42.987,42.987,0,0,0-23.327-38.228L600,684,176.425,907.885a42.988,42.988,0,0,0-22.4,37.739v17.207Z"/><path class="e" d="M1045.978,962.912V946.418a42.987,42.987,0,0,0-23.327-38.228L600,684.081,176.425,907.967a42.986,42.986,0,0,0-22.4,37.738v17.207Z"/><path class="f" d="M1045.978,962.994V946.5a42.99,42.99,0,0,0-23.327-38.229L600,684.162,176.425,908.048a42.989,42.989,0,0,0-22.4,37.739v17.207Z"/><path class="g" d="M1045.978,963.076V946.582a42.988,42.988,0,0,0-23.327-38.229L600,684.244,176.425,908.13a42.989,42.989,0,0,0-22.4,37.739v17.207Z"/><path class="h" d="M1045.978,963.158V946.663a42.987,42.987,0,0,0-23.327-38.228L600,684.326,176.425,908.212a42.988,42.988,0,0,0-22.4,37.739v17.207Z"/><path class="i" d="M1045.978,963.239V946.745a42.99,42.99,0,0,0-23.327-38.229L600,684.408,176.425,908.294a42.986,42.986,0,0,0-22.4,37.738v17.207Z"/><path class="j" d="M1045.978,963.321V946.827a42.99,42.99,0,0,0-23.327-38.229L600,684.489,176.425,908.375a42.989,42.989,0,0,0-22.4,37.739v17.207Z"/><path class="k" d="M1045.978,963.4V946.908a42.988,42.988,0,0,0-23.327-38.228L600,684.571,176.425,908.457a42.989,42.989,0,0,0-22.4,37.739V963.4Z"/><path class="l" d="M1045.978,963.485V946.99a42.988,42.988,0,0,0-23.327-38.228L600,684.653,176.425,908.539a42.989,42.989,0,0,0-22.4,37.739v17.207Z"/><path class="m" d="M1045.978,963.566V947.072a42.987,42.987,0,0,0-23.327-38.228L600,684.735,176.425,908.621a42.987,42.987,0,0,0-22.4,37.738v17.207Z"/><path class="n" d="M1045.978,963.648V947.154a42.99,42.99,0,0,0-23.327-38.229L600,684.817,176.425,908.7a42.989,42.989,0,0,0-22.4,37.739v17.207Z"/><path class="o" d="M1045.978,963.73V947.236a42.988,42.988,0,0,0-23.327-38.229L600,684.9,176.425,908.784a42.989,42.989,0,0,0-22.4,37.739V963.73Z"/><path class="p" d="M1045.978,963.812V947.317a42.988,42.988,0,0,0-23.327-38.228L600,684.98,176.425,908.866a42.989,42.989,0,0,0-22.4,37.739v17.207Z"/><path class="q" d="M1045.978,963.894V947.4a42.987,42.987,0,0,0-23.327-38.228L600,685.062,176.425,908.948a42.987,42.987,0,0,0-22.4,37.738v17.208Z"/><path class="r" d="M1045.978,963.975V947.481a42.99,42.99,0,0,0-23.327-38.229L600,685.144,176.425,909.03a42.986,42.986,0,0,0-22.4,37.738v17.207Z"/><path class="s" d="M1045.978,964.057V947.563a42.988,42.988,0,0,0-23.327-38.229L600,685.225,176.425,909.111a42.989,42.989,0,0,0-22.4,37.739v17.207Z"/><path class="t" d="M1045.978,964.139V947.644a42.988,42.988,0,0,0-23.327-38.228L600,685.307,176.425,909.193a42.989,42.989,0,0,0-22.4,37.739v17.207Z"/><path class="u" d="M1045.978,964.22V947.726a42.987,42.987,0,0,0-23.327-38.228L600,685.389,176.425,909.275a42.988,42.988,0,0,0-22.4,37.739V964.22Z"/><path class="v" d="M1045.978,964.3V947.808a42.99,42.99,0,0,0-23.327-38.229L600,685.471,176.425,909.357a42.987,42.987,0,0,0-22.4,37.738V964.3Z"/><path class="w" d="M1045.978,964.384V947.89a42.99,42.99,0,0,0-23.327-38.229L600,685.552,176.425,909.438a42.989,42.989,0,0,0-22.4,37.739v17.207Z"/><path class="x" d="M1045.978,964.466V947.971a42.988,42.988,0,0,0-23.327-38.228L600,685.634,176.425,909.52a42.989,42.989,0,0,0-22.4,37.739v17.207Z"/><path class="y" d="M1045.978,964.548V948.053a42.988,42.988,0,0,0-23.327-38.228L600,685.716,176.425,909.6a42.988,42.988,0,0,0-22.4,37.739v17.207Z"/><path class="z" d="M1045.978,964.629V948.135a42.987,42.987,0,0,0-23.327-38.228L600,685.8,176.425,909.684a42.986,42.986,0,0,0-22.4,37.738v17.207Z"/><path class="aa" d="M1045.978,964.711V948.217a42.99,42.99,0,0,0-23.327-38.229L600,685.879,176.425,909.765a42.989,42.989,0,0,0-22.4,37.739v17.207Z"/><path class="ab" d="M1045.978,964.793V948.3a42.988,42.988,0,0,0-23.327-38.229L600,685.961,176.425,909.847a42.989,42.989,0,0,0-22.4,37.739v17.207Z"/><path class="ac" d="M1045.978,964.875V948.38a42.987,42.987,0,0,0-23.327-38.228L600,686.043,176.425,909.929a42.989,42.989,0,0,0-22.4,37.739v17.207Z"/><path class="ad" d="M1045.978,964.956V948.462a42.987,42.987,0,0,0-23.327-38.228L600,686.125,176.425,910.011a42.987,42.987,0,0,0-22.4,37.738v17.207Z"/><path class="ae" d="M1045.978,965.038V948.544a42.99,42.99,0,0,0-23.327-38.229L600,686.207,176.425,910.092a42.989,42.989,0,0,0-22.4,37.739v17.207Z"/><path class="af" d="M1045.978,965.12V948.626a42.99,42.99,0,0,0-23.327-38.229L600,686.288,176.425,910.174a42.989,42.989,0,0,0-22.4,37.739V965.12Z"/><path class="ag" d="M1045.978,965.2v-16.5a42.988,42.988,0,0,0-23.327-38.228L600,686.37,176.425,910.256a42.989,42.989,0,0,0-22.4,37.739V965.2Z"/><path class="ah" d="M1045.978,965.283V948.789a42.987,42.987,0,0,0-23.327-38.228L600,686.452,176.425,910.338a42.987,42.987,0,0,0-22.4,37.738v17.207Z"/><path class="ai" d="M1045.978,965.365V948.871a42.989,42.989,0,0,0-23.327-38.229L600,686.533,176.425,910.42a42.986,42.986,0,0,0-22.4,37.738v17.207Z"/><path class="aj" d="M1045.978,965.447V948.953a42.988,42.988,0,0,0-23.327-38.229L600,686.615,176.425,910.5a42.989,42.989,0,0,0-22.4,37.739v17.207Z"/><path class="ak" d="M1045.978,965.529V949.034a42.988,42.988,0,0,0-23.327-38.228L600,686.7,176.425,910.583a42.989,42.989,0,0,0-22.4,37.739v17.207Z"/><path class="al" d="M1045.978,965.61V949.116a42.987,42.987,0,0,0-23.327-38.228L600,686.779,176.425,910.665a42.989,42.989,0,0,0-22.4,37.739V965.61Z"/><path class="am" d="M1045.978,965.692V949.2a42.99,42.99,0,0,0-23.327-38.229L600,686.861,176.425,910.747a42.986,42.986,0,0,0-22.4,37.738v17.207Z"/><path class="an" d="M1045.978,965.774V949.28a42.99,42.99,0,0,0-23.327-38.229L600,686.942,176.425,910.828a42.989,42.989,0,0,0-22.4,37.739v17.207Z"/><path class="ao" d="M1045.978,965.856V949.361a42.988,42.988,0,0,0-23.327-38.228L600,687.024,176.425,910.91a42.989,42.989,0,0,0-22.4,37.739v17.207Z"/><path class="ap" d="M1045.978,965.938V949.443a42.987,42.987,0,0,0-23.327-38.228L600,687.106,176.425,910.992a42.988,42.988,0,0,0-22.4,37.739v17.207Z"/><path class="aq" d="M1045.978,966.019V949.525a42.987,42.987,0,0,0-23.327-38.228L600,687.188,176.425,911.074a42.986,42.986,0,0,0-22.4,37.738v17.207Z"/><path class="ar" d="M1045.978,966.1V949.607a42.99,42.99,0,0,0-23.327-38.229L600,687.269,176.425,911.155a42.989,42.989,0,0,0-22.4,37.739V966.1Z"/><path class="as" d="M1045.978,966.183V949.689a42.988,42.988,0,0,0-23.327-38.229L600,687.351,176.425,911.237a42.989,42.989,0,0,0-22.4,37.739v17.207Z"/><path class="at" d="M1045.978,966.265V949.77a42.987,42.987,0,0,0-23.327-38.228L600,687.433,176.425,911.319a42.989,42.989,0,0,0-22.4,37.739v17.207Z"/><path class="au" d="M1045.978,966.346V949.852a42.99,42.99,0,0,0-23.327-38.229L600,687.515,176.425,911.4a42.988,42.988,0,0,0-22.4,37.739v17.206Z"/><path class="av" d="M1045.978,966.428V949.934a42.99,42.99,0,0,0-23.327-38.229L600,687.6,176.425,911.483a42.986,42.986,0,0,0-22.4,37.738v17.207Z"/><path class="aw" d="M1045.978,966.51V950.016a42.99,42.99,0,0,0-23.327-38.229L600,687.678,176.425,911.564a42.989,42.989,0,0,0-22.4,37.739V966.51Z"/><path class="ax" d="M1045.978,966.592V950.1a42.988,42.988,0,0,0-23.327-38.228L600,687.76,176.425,911.646a42.989,42.989,0,0,0-22.4,37.739v17.207Z"/><path class="ay" d="M1045.978,966.674V950.179a42.987,42.987,0,0,0-23.327-38.228L600,687.842,176.425,911.728a42.987,42.987,0,0,0-22.4,37.738v17.208Z"/><path class="az" d="M1045.978,966.755V950.261a42.99,42.99,0,0,0-23.327-38.229L600,687.924,176.425,911.809a42.989,42.989,0,0,0-22.4,37.739v17.207Z"/><path class="ba" d="M1045.978,966.837V950.343a42.988,42.988,0,0,0-23.327-38.229L600,688.005,176.425,911.891a42.989,42.989,0,0,0-22.4,37.739v17.207Z"/><path class="bb" d="M1045.978,966.919V950.424a42.988,42.988,0,0,0-23.327-38.228L600,688.087,176.425,911.973a42.989,42.989,0,0,0-22.4,37.739v17.207Z"/><path class="bc" d="M1045.978,967V950.506a42.987,42.987,0,0,0-23.327-38.228L600,688.169,176.425,912.055a42.988,42.988,0,0,0-22.4,37.739V967Z"/><path class="bd" d="M1045.978,967.082V950.588a42.99,42.99,0,0,0-23.327-38.229L600,688.251,176.425,912.137a42.986,42.986,0,0,0-22.4,37.738v17.207Z"/><path class="be" d="M1045.978,967.164V950.67a42.99,42.99,0,0,0-23.327-38.229L600,688.332,176.425,912.218a42.989,42.989,0,0,0-22.4,37.739v17.207Z"/><path class="bf" d="M1045.978,967.246V950.751a42.988,42.988,0,0,0-23.327-38.228L600,688.414,176.425,912.3a42.989,42.989,0,0,0-22.4,37.739v17.207Z"/><path class="bg" d="M1045.978,967.328V950.833a42.988,42.988,0,0,0-23.327-38.228L600,688.5,176.425,912.382a42.989,42.989,0,0,0-22.4,37.739v17.207Z"/><path class="bh" d="M1045.978,967.409V950.915a42.99,42.99,0,0,0-23.327-38.229L600,688.578,176.425,912.464a42.987,42.987,0,0,0-22.4,37.738v17.207Z"/><path class="bi" d="M1045.978,967.491V951a42.99,42.99,0,0,0-23.327-38.229L600,688.659,176.425,912.545a42.989,42.989,0,0,0-22.4,37.739v17.207Z"/><path class="bj" d="M1045.978,967.573V951.078a42.988,42.988,0,0,0-23.327-38.228L600,688.741,176.425,912.627a42.989,42.989,0,0,0-22.4,37.739v17.207Z"/><path class="bk" d="M1045.978,967.655v-16.5a42.988,42.988,0,0,0-23.327-38.228L600,688.823,176.425,912.709a42.989,42.989,0,0,0-22.4,37.739v17.207Z"/><path class="bl" d="M1045.978,967.736V951.242a42.987,42.987,0,0,0-23.327-38.228L600,688.905,176.425,912.791a42.988,42.988,0,0,0-22.4,37.739v17.206Z"/><path class="bm" d="M1045.978,967.818V951.324a42.99,42.99,0,0,0-23.327-38.229L600,688.986,176.425,912.872a42.989,42.989,0,0,0-22.4,37.739v17.207Z"/><path class="bn" d="M1045.978,967.9V951.406a42.988,42.988,0,0,0-23.327-38.229L600,689.068,176.425,912.954a42.989,42.989,0,0,0-22.4,37.739V967.9Z"/><path class="bo" d="M1045.978,967.982V951.487a42.988,42.988,0,0,0-23.327-38.228L600,689.15,176.425,913.036a42.989,42.989,0,0,0-22.4,37.739v17.207Z"/><path class="bp" d="M1045.978,968.063V951.569a42.987,42.987,0,0,0-23.327-38.228L600,689.232,176.425,913.118a42.987,42.987,0,0,0-22.4,37.738v17.207Z"/><path class="bq" d="M1045.978,968.145V951.651a42.99,42.99,0,0,0-23.327-38.229L600,689.314,176.425,913.2a42.989,42.989,0,0,0-22.4,37.739v17.207Z"/><path class="br" d="M1045.978,968.227V951.733a42.989,42.989,0,0,0-23.327-38.229L600,689.4,176.425,913.281a42.989,42.989,0,0,0-22.4,37.739v17.207Z"/><path class="bs" d="M1045.978,968.309V951.814a42.988,42.988,0,0,0-23.327-38.228L600,689.477,176.425,913.363a42.989,42.989,0,0,0-22.4,37.739v17.207Z"/><path class="bt" d="M1045.978,968.39V951.9a42.987,42.987,0,0,0-23.327-38.228L600,689.559,176.425,913.445a42.988,42.988,0,0,0-22.4,37.739V968.39Z"/><path class="bu" d="M1045.978,968.472V951.978a42.99,42.99,0,0,0-23.327-38.229L600,689.641,176.425,913.527a42.986,42.986,0,0,0-22.4,37.738v17.207Z"/><path class="bv" d="M1045.978,968.554V952.06a42.99,42.99,0,0,0-23.327-38.229L600,689.722,176.425,913.608a42.989,42.989,0,0,0-22.4,37.739v17.207Z"/><path class="bw" d="M1045.978,968.636V952.141a42.988,42.988,0,0,0-23.327-38.228L600,689.8,176.425,913.69a42.989,42.989,0,0,0-22.4,37.739v17.207Z"/><path class="bx" d="M1045.978,968.718V952.223a42.987,42.987,0,0,0-23.327-38.228L600,689.886,176.425,913.772a42.989,42.989,0,0,0-22.4,37.739v17.207Z"/><path class="by" d="M1045.978,968.8V952.3a42.99,42.99,0,0,0-23.327-38.229L600,689.968,176.425,913.854a42.987,42.987,0,0,0-22.4,37.738V968.8Z"/><path class="bz" d="M1045.978,968.881V952.387a42.99,42.99,0,0,0-23.327-38.229L600,690.049,176.425,913.935a42.989,42.989,0,0,0-22.4,37.739v17.207Z"/><path class="ca" d="M1045.978,968.963V952.468a42.988,42.988,0,0,0-23.327-38.228L600,690.131,176.425,914.017a42.989,42.989,0,0,0-22.4,37.739v17.207Z"/><path class="cb" d="M1045.978,969.045V952.55a42.987,42.987,0,0,0-23.327-38.228L600,690.213,176.425,914.1a42.988,42.988,0,0,0-22.4,37.739v17.207Z"/><path class="cc" d="M1045.978,969.126V952.632a42.987,42.987,0,0,0-23.327-38.228L600,690.295,176.425,914.181a42.986,42.986,0,0,0-22.4,37.738v17.207Z"/><path class="cd" d="M1045.978,969.208V952.714a42.99,42.99,0,0,0-23.327-38.229L600,690.376,176.425,914.262A42.989,42.989,0,0,0,154.022,952v17.207Z"/><path class="ce" d="M1045.978,969.29V952.8a42.988,42.988,0,0,0-23.327-38.229L600,690.458,176.425,914.344a42.989,42.989,0,0,0-22.4,37.739V969.29Z"/><path class="cf" d="M1045.978,969.372V952.877a42.988,42.988,0,0,0-23.327-38.228L600,690.54,176.425,914.426a42.989,42.989,0,0,0-22.4,37.739v17.207Z"/><path class="cg" d="M1045.978,969.453V952.959a42.987,42.987,0,0,0-23.327-38.228L600,690.622,176.425,914.508a42.988,42.988,0,0,0-22.4,37.739v17.206Z"/><path class="ch" d="M1045.978,969.535V953.041a42.99,42.99,0,0,0-23.327-38.229L600,690.7,176.425,914.59a42.986,42.986,0,0,0-22.4,37.738v17.207Z"/><path class="ci" d="M1045.978,969.617V953.123a42.99,42.99,0,0,0-23.327-38.229L600,690.785,176.425,914.671a42.989,42.989,0,0,0-22.4,37.739v17.207Z"/><path class="cj" d="M1045.978,969.7V953.2a42.988,42.988,0,0,0-23.327-38.228L600,690.867,176.425,914.753a42.989,42.989,0,0,0-22.4,37.739V969.7Z"/><path class="ck" d="M1045.978,969.781V953.286a42.987,42.987,0,0,0-23.327-38.228L600,690.949,176.425,914.835a42.988,42.988,0,0,0-22.4,37.739v17.207Z"/><path class="cl" d="M1045.978,969.862V953.368a42.99,42.99,0,0,0-23.327-38.229L600,691.031,176.425,914.916a42.989,42.989,0,0,0-22.4,37.739v17.207Z"/><path class="cm" d="M1045.978,969.944V953.45a42.988,42.988,0,0,0-23.327-38.229L600,691.112,176.425,915a42.989,42.989,0,0,0-22.4,37.739v17.207Z"/><path class="cn" d="M1045.978,970.026V953.531a42.988,42.988,0,0,0-23.327-38.228L600,691.194,176.425,915.08a42.989,42.989,0,0,0-22.4,37.739v17.207Z"/><path class="co" d="M1045.978,970.108V953.613a42.987,42.987,0,0,0-23.327-38.228L600,691.276,176.425,915.162a42.989,42.989,0,0,0-22.4,37.739v17.207Z"/><path class="cp" d="M1045.978,970.189V953.7a42.99,42.99,0,0,0-23.327-38.229L600,691.358,176.425,915.244a42.987,42.987,0,0,0-22.4,37.738v17.207Z"/><path class="cq" d="M1045.978,970.271V953.777a42.99,42.99,0,0,0-23.327-38.229L600,691.439,176.425,915.325a42.989,42.989,0,0,0-22.4,37.739v17.207Z"/><path class="cr" d="M1045.978,970.353v-16.5a42.988,42.988,0,0,0-23.327-38.228L600,691.521,176.425,915.407a42.989,42.989,0,0,0-22.4,37.739v17.207Z"/><path class="cs" d="M1045.978,970.435V953.94a42.988,42.988,0,0,0-23.327-38.228L600,691.6,176.425,915.489a42.989,42.989,0,0,0-22.4,37.739v17.207Z"/><path class="ct" d="M1045.978,970.516V954.022a42.989,42.989,0,0,0-23.327-38.229L600,691.685,176.425,915.571a42.987,42.987,0,0,0-22.4,37.738v17.207Z"/><path class="cu" d="M1045.978,970.6V954.1a42.99,42.99,0,0,0-23.327-38.229L600,691.766,176.425,915.652a42.989,42.989,0,0,0-22.4,37.739V970.6Z"/><path class="cv" d="M1045.978,970.68V954.185a42.988,42.988,0,0,0-23.327-38.228L600,691.848,176.425,915.734a42.989,42.989,0,0,0-22.4,37.739V970.68Z"/><path class="cw" d="M1045.978,970.762V954.267a42.988,42.988,0,0,0-23.327-38.228L600,691.93,176.425,915.816a42.989,42.989,0,0,0-22.4,37.739v17.207Z"/><path class="cx" d="M1045.978,970.843V954.349a42.987,42.987,0,0,0-23.327-38.228L600,692.012,176.425,915.9a42.988,42.988,0,0,0-22.4,37.739v17.206Z"/><path class="cy" d="M1045.978,970.925V954.431a42.989,42.989,0,0,0-23.327-38.229L600,692.093,176.425,915.979a42.989,42.989,0,0,0-22.4,37.739v17.207Z"/><path class="cz" d="M1045.978,971.007V954.513a42.988,42.988,0,0,0-23.327-38.229L600,692.175,176.425,916.061a42.989,42.989,0,0,0-22.4,37.739v17.207Z"/><path class="da" d="M1045.978,971.089V954.594a42.988,42.988,0,0,0-23.327-38.228L600,692.257,176.425,916.143a42.989,42.989,0,0,0-22.4,37.739v17.207Z"/><path class="db" d="M1045.978,971.171V954.676a42.987,42.987,0,0,0-23.327-38.228L600,692.339,176.425,916.225a42.987,42.987,0,0,0-22.4,37.738v17.208Z"/><path class="dc" d="M1045.978,971.252V954.758a42.99,42.99,0,0,0-23.327-38.229L600,692.421,176.425,916.306a42.989,42.989,0,0,0-22.4,37.739v17.207Z"/><path class="dd" d="M1045.978,971.334V954.84a42.99,42.99,0,0,0-23.327-38.229L600,692.5,176.425,916.388a42.989,42.989,0,0,0-22.4,37.739v17.207Z"/><path class="de" d="M1045.978,971.416V954.921a42.988,42.988,0,0,0-23.327-38.228L600,692.584,176.425,916.47a42.989,42.989,0,0,0-22.4,37.739v17.207Z"/><path class="df" d="M1045.978,971.5V955a42.987,42.987,0,0,0-23.327-38.228L600,692.666,176.425,916.552a42.988,42.988,0,0,0-22.4,37.739V971.5Z"/><path class="dg" d="M1045.978,971.579V955.085a42.99,42.99,0,0,0-23.327-38.229L600,692.748,176.425,916.634a42.986,42.986,0,0,0-22.4,37.738v17.207Z"/><path class="dh" d="M1045.978,971.661V955.167a42.99,42.99,0,0,0-23.327-38.229L600,692.829,176.425,916.715a42.989,42.989,0,0,0-22.4,37.739v17.207Z"/><path class="di" d="M1045.978,971.743V955.248a42.988,42.988,0,0,0-23.327-38.228L600,692.911,176.425,916.8a42.989,42.989,0,0,0-22.4,37.739v17.207Z"/><path class="dj" d="M1045.978,971.825V955.33a42.988,42.988,0,0,0-23.327-38.228L600,692.993,176.425,916.879a42.989,42.989,0,0,0-22.4,37.739v17.207Z"/><path class="dk" d="M1045.978,971.906V955.412a42.99,42.99,0,0,0-23.327-38.229L600,693.075,176.425,916.961a42.987,42.987,0,0,0-22.4,37.738v17.207Z"/><path class="dl" d="M1045.978,971.988V955.494a42.99,42.99,0,0,0-23.327-38.229L600,693.156,176.425,917.042a42.989,42.989,0,0,0-22.4,37.739v17.207Z"/><path class="dm" d="M1045.978,972.07V955.575a42.988,42.988,0,0,0-23.327-38.228L600,693.238,176.425,917.124a42.989,42.989,0,0,0-22.4,37.739V972.07Z"/><path class="dn" d="M1045.978,972.152V955.657a42.987,42.987,0,0,0-23.327-38.228L600,693.32,176.425,917.206a42.989,42.989,0,0,0-22.4,37.739v17.207Z"/><path class="do" d="M1045.978,972.233V955.739a42.987,42.987,0,0,0-23.327-38.228L600,693.4,176.425,917.288a42.988,42.988,0,0,0-22.4,37.739v17.206Z"/><path class="dp" d="M1045.978,972.315V955.821a42.99,42.99,0,0,0-23.327-38.229L600,693.483,176.425,917.37a42.986,42.986,0,0,0-22.4,37.738v17.207Z"/><path class="dq" d="M1045.978,972.4V955.9a42.988,42.988,0,0,0-23.327-38.229L600,693.565,176.425,917.451a42.989,42.989,0,0,0-22.4,37.739V972.4Z"/><path class="dr" d="M1045.978,972.479V955.984a42.988,42.988,0,0,0-23.327-38.228L600,693.647,176.425,917.533a42.989,42.989,0,0,0-22.4,37.739v17.207Z"/><path class="ds" d="M1045.978,972.56V956.066a42.987,42.987,0,0,0-23.327-38.228L600,693.729,176.425,917.615a42.988,42.988,0,0,0-22.4,37.739V972.56Z"/><path class="dt" d="M1045.978,972.642V956.148a42.99,42.99,0,0,0-23.327-38.229L600,693.81,176.425,917.7a42.986,42.986,0,0,0-22.4,37.738v17.207Z"/><path class="du" d="M1045.978,972.724V956.23A42.99,42.99,0,0,0,1022.651,918L600,693.892,176.425,917.778a42.989,42.989,0,0,0-22.4,37.739v17.207Z"/><path class="dv" d="M1045.978,972.806v-16.5a42.988,42.988,0,0,0-23.327-38.228L600,693.974,176.425,917.86a42.989,42.989,0,0,0-22.4,37.739v17.207Z"/><path class="dw" d="M1045.978,972.888V956.393a42.987,42.987,0,0,0-23.327-38.228L600,694.056,176.425,917.942a42.988,42.988,0,0,0-22.4,37.739v17.207Z"/><path class="dx" d="M1045.978,972.969V956.475a42.99,42.99,0,0,0-23.327-38.229L600,694.138,176.425,918.024a42.986,42.986,0,0,0-22.4,37.738v17.207Z"/><path class="dy" d="M1045.978,973.051V956.557a42.99,42.99,0,0,0-23.327-38.229L600,694.219,176.425,918.1a42.989,42.989,0,0,0-22.4,37.739v17.207Z"/><path class="dz" d="M1045.978,973.133V956.638a42.988,42.988,0,0,0-23.327-38.228L600,694.3,176.425,918.187a42.989,42.989,0,0,0-22.4,37.739v17.207Z"/><path class="ea" d="M1045.978,973.215v-16.5a42.987,42.987,0,0,0-23.327-38.228L600,694.383,176.425,918.269a42.989,42.989,0,0,0-22.4,37.739v17.207Z"/><path class="eb" d="M1045.978,973.3V956.8a42.99,42.99,0,0,0-23.327-38.229L600,694.465,176.425,918.351a42.986,42.986,0,0,0-22.4,37.738V973.3Z"/><path class="ec" d="M1045.978,973.378V956.884a42.989,42.989,0,0,0-23.327-38.229L600,694.546,176.425,918.432a42.989,42.989,0,0,0-22.4,37.739v17.207Z"/><path class="ed" d="M1045.978,973.46V956.965a42.988,42.988,0,0,0-23.327-38.228L600,694.628,176.425,918.514a42.989,42.989,0,0,0-22.4,37.739V973.46Z"/><path class="ee" d="M1045.978,973.542V957.047a42.988,42.988,0,0,0-23.327-38.228L600,694.71,176.425,918.6a42.989,42.989,0,0,0-22.4,37.739v17.207Z"/><path class="ef" d="M1045.978,973.623V957.129a42.99,42.99,0,0,0-23.327-38.229L600,694.792,176.425,918.678a42.987,42.987,0,0,0-22.4,37.738v17.207Z"/><path class="eg" d="M1045.978,973.705V957.211a42.99,42.99,0,0,0-23.327-38.229L600,694.873,176.425,918.76a42.986,42.986,0,0,0-22.4,37.738v17.207Z"/><path class="eh" d="M1045.978,973.787V957.293a42.988,42.988,0,0,0-23.327-38.229L600,694.955,176.425,918.841a42.989,42.989,0,0,0-22.4,37.739v17.207Z"/><path class="ei" d="M1045.978,973.869V957.374a42.988,42.988,0,0,0-23.327-38.228L600,695.037,176.425,918.923a42.989,42.989,0,0,0-22.4,37.739v17.207Z"/><path class="ej" d="M1045.978,973.95V957.456a42.987,42.987,0,0,0-23.327-38.228L600,695.119,176.425,919.005a42.988,42.988,0,0,0-22.4,37.739V973.95Z"/><path class="ek" d="M1045.978,974.032V957.538a42.99,42.99,0,0,0-23.327-38.229L600,695.2,176.425,919.086a42.989,42.989,0,0,0-22.4,37.739v17.207Z"/><path class="el" d="M1045.978,974.114V957.62a42.988,42.988,0,0,0-23.327-38.229L600,695.282,176.425,919.168a42.989,42.989,0,0,0-22.4,37.739v17.207Z"/><path class="em" d="M1045.978,974.2V957.7a42.988,42.988,0,0,0-23.327-38.228L600,695.364,176.425,919.25a42.989,42.989,0,0,0-22.4,37.739V974.2Z"/><path class="en" d="M1045.978,974.278V957.783a42.987,42.987,0,0,0-23.327-38.228L600,695.446,176.425,919.332a42.988,42.988,0,0,0-22.4,37.739v17.207Z"/><path class="eo" d="M1045.978,974.359V957.865a42.99,42.99,0,0,0-23.327-38.229L600,695.528,176.425,919.414a42.986,42.986,0,0,0-22.4,37.738v17.207Z"/><path class="ep" d="M1045.978,974.441V957.947a42.99,42.99,0,0,0-23.327-38.229L600,695.609,176.425,919.495a42.989,42.989,0,0,0-22.4,37.739v17.207Z"/><path class="eq" d="M1045.978,974.523V958.028a42.988,42.988,0,0,0-23.327-38.228L600,695.691,176.425,919.577a42.989,42.989,0,0,0-22.4,37.739v17.207Z"/><path class="er" d="M1045.978,974.6V958.11a42.987,42.987,0,0,0-23.327-38.228L600,695.773,176.425,919.659a42.988,42.988,0,0,0-22.4,37.739V974.6Z"/><path class="es" d="M1045.978,974.686V958.192a42.99,42.99,0,0,0-23.327-38.229L600,695.855,176.425,919.741a42.986,42.986,0,0,0-22.4,37.738v17.207Z"/></g><path class="et" d="M1045.978,974.686V958.192a42.99,42.99,0,0,0-23.327-38.229L600,695.855,176.425,919.741a42.986,42.986,0,0,0-22.4,37.738v17.207Z" transform="translate(73.978 1120.892)"/></g></svg>